<?xml version="1.0" encoding="UTF-8" standalone="no"?>
<!--Created by Nrishinghananda Roy-->

<svg
   width="200"
   height="250"
   viewBox="0 0 612.24491 765.30611"
   version="1.1"
   id="royrustdev"
   inkscape:version="1.1.2 (0a00cf5339, 2022-02-04, custom)"
   sodipodi:docname="royrustdev.svg"
   xmlns:inkscape="http://www.inkscape.org/namespaces/inkscape"
   xmlns:sodipodi="http://sodipodi.sourceforge.net/DTD/sodipodi-0.dtd"
   xmlns="http://www.w3.org/2000/svg"
   xmlns:svg="http://www.w3.org/2000/svg">
  <sodipodi:namedview
     id="royrustdev"
     pagecolor="#ffffff"
     bordercolor="#666666"
     borderopacity="1.0"
     inkscape:pageshadow="2"
     inkscape:pageopacity="0.0"
     inkscape:pagecheckerboard="0"
     inkscape:document-units="px"
     showgrid="false"
     showborder="true"
     inkscape:object-paths="true"
     inkscape:snap-intersection-paths="true"
     showguides="true"
     inkscape:guide-bbox="true"
     inkscape:zoom="1"
     inkscape:cx="1.5"
     inkscape:cy="161"
     inkscape:window-width="1366"
     inkscape:window-height="703"
     inkscape:window-x="0"
     inkscape:window-y="41"
     inkscape:window-maximized="1"
     inkscape:current-layer="layer1"
     width="200px"
     height="250px" />
  <defs
     id="defs2">
    <linearGradient
       id="linearGradient4598"
       inkscape:swatch="solid">
      <stop
         style="stop-color:#00ffff;stop-opacity:1;"
         offset="0"
         id="stop4596" />
    </linearGradient>
    <inkscape:path-effect
       effect="fillet_chamfer"
       id="path-effect2481"
       is_visible="true"
       lpeversion="1"
       satellites_param="F,0,0,1,0,0,0,1 @ F,0,0,1,0,0,0,1 @ F,0,0,1,0,0,0,1 @ F,0,0,1,0,0,0,1 @ F,0,0,1,0,0,0,1 @ F,0,0,1,0,107.71417,0,1 @ F,0,0,1,0,4.1689083,0,1 @ F,0,0,1,0,0,0,1"
       unit="px"
       method="auto"
       mode="F"
       radius="0"
       chamfer_steps="1"
       flexible="false"
       use_knot_distance="true"
       apply_no_radius="true"
       apply_with_radius="true"
       only_selected="false"
       hide_knots="false" />
    <inkscape:path-effect
       effect="fillet_chamfer"
       id="path-effect7284"
       is_visible="true"
       lpeversion="1"
       satellites_param="F,0,0,1,0,71.158761,0,1 @ F,0,0,1,0,0,0,1 @ F,0,0,1,0,66.085177,0,1 @ F,0,0,1,0,0,0,1 @ C,0,0,1,0,0,0,1 @ F,0,0,1,0,0,0,1"
       unit="px"
       method="auto"
       mode="F"
       radius="0"
       chamfer_steps="1"
       flexible="false"
       use_knot_distance="true"
       apply_no_radius="true"
       apply_with_radius="true"
       only_selected="false"
       hide_knots="false" />
    <inkscape:path-effect
       effect="fillet_chamfer"
       id="path-effect4242"
       is_visible="true"
       lpeversion="1"
       satellites_param="F,0,0,1,0,71.158761,0,1 @ F,0,0,1,0,0,0,1 @ F,0,0,1,0,66.085177,0,1 @ F,0,0,1,0,0,0,1 @ C,0,0,1,0,0,0,1 @ F,0,0,1,0,0,0,1"
       unit="px"
       method="auto"
       mode="F"
       radius="0"
       chamfer_steps="1"
       flexible="false"
       use_knot_distance="true"
       apply_no_radius="true"
       apply_with_radius="true"
       only_selected="false"
       hide_knots="false" />
    <clipPath
       clipPathUnits="userSpaceOnUse"
       id="clipPath2754">
      <g
         inkscape:label="Clip"
         id="use2756">
        <path
           id="path2762"
           style="opacity:1;fill:#00e1e1;fill-opacity:1;fill-rule:evenodd;stroke-width:0;stroke-miterlimit:4;stroke-dasharray:none;stroke-opacity:0.48114;paint-order:stroke fill markers"
           d="m -6.1655422,149.68666 -0.88574,2.83084 11.91762,3.90312 9.6071702,-0.44131 -0.13901,-3.0298 -9.2402702,0.42427 z" />
      </g>
    </clipPath>
  </defs>
  <g
     inkscape:label="Layer 1"
     inkscape:groupmode="layer"
     id="layer1">
    <path
       id="path4160"
       d="M 471.73276,646.31497 305.95346,744.09229 130.58248,639.64865 A 260.65086,267.57069 0 0 1 0.73189283,407.64507 L 1.1581828,199.51557 307.43846,18.870059 l 305.5378,181.965601 -0.402,196.26939 a 280.66194,288.11302 0 0 1 -140.8414,249.20992 z"
       style="opacity:1;fill:#fc2145;fill-opacity:1;fill-rule:evenodd;stroke-width:0;stroke-miterlimit:4;stroke-dasharray:none;stroke-opacity:0.48114;paint-order:stroke fill markers"
       inkscape:transform-center-x="1.8796443e-05" />
    <path
       id="path7280"
       inkscape:transform-center-y="-2.5896744e-05"
       d="M 308.55306,70.574746 48.391493,224.01753 48.022033,404.8498 c -0.15732,76.89409 42.11064,152.41785 106.902137,191.00455 l 152.36549,90.73799 142.7186,-84.17255 c 71.0059,-41.87953 117.5564,-124.24794 117.7278,-208.31301 l 0.3512,-168.96607 z"
       style="opacity:1;fill:#020254;fill-opacity:1;fill-rule:evenodd;stroke-width:0;stroke-miterlimit:4;stroke-dasharray:none;stroke-opacity:0.48114;paint-order:stroke fill markers"
       inkscape:transform-center-x="2.0700826e-06" />
    <path
       style="fill:none;stroke:#000000;stroke-width:2.30718px;stroke-linecap:butt;stroke-linejoin:miter;stroke-opacity:1"
       d="M 118.93161,938.00267 Z"
       id="path3070" />
    <g
       transform="matrix(-0.23155831,0,0,-0.23251158,538.84326,550.84877)"
       fill="#ffffff"
       stroke="none"
       id="g1121"
       style="fill:#fc2145;fill-opacity:1">
      <path
         d="m 977,1640 c 6,-24 -9,-26 -27,-5 -17,20 -31,19 -23,-2 7,-17 -5,-16 -50,2 -14,6 -16,4 -10,-10 7,-19 -2,-19 -52,0 -16,7 -18,6 -7,-6 27,-29 12,-33 -48,-11 -12,5 -13,3 -3,-10 17,-19 6,-29 -24,-22 -19,5 -22,3 -16,-11 6,-16 2,-17 -32,-12 -29,5 -35,3 -27,-5 19,-19 14,-28 -18,-28 -22,0 -28,-4 -24,-15 5,-11 -2,-15 -27,-15 -26,0 -30,-3 -21,-12 20,-20 14,-28 -20,-28 -25,0 -29,-3 -20,-12 18,-18 14,-28 -11,-28 -32,0 -40,-10 -19,-26 15,-12 14,-14 -16,-20 -24,-5 -30,-10 -23,-17 17,-17 13,-24 -15,-31 -25,-7 -25,-8 -8,-20 17,-13 16,-15 -14,-30 -32,-16 -42,-28 -21,-24 25,6 18,-19 -8,-32 -22,-11 -25,-14 -11,-17 24,-6 23,-20 -2,-35 -23,-15 -27,-30 -5,-22 23,9 18,-15 -7,-37 -20,-16 -20,-18 -5,-19 21,0 22,-13 2,-30 -16,-13 -21,-35 -6,-25 19,11 23,-17 5,-36 -16,-17 -16,-19 -1,-19 21,0 21,-10 2,-36 -18,-24 -19,-40 -2,-25 21,17 28,1 12,-29 -14,-27 -13,-28 7,-22 16,4 20,1 16,-9 -22,-53 -22,-53 -4,-46 16,6 17,3 12,-28 -6,-30 -5,-34 10,-28 15,5 16,2 11,-24 -5,-27 -4,-30 14,-26 19,5 20,2 14,-33 -5,-31 -4,-35 5,-21 14,22 30,13 30,-18 0,-18 4,-23 15,-19 11,5 15,-2 15,-27 0,-26 3,-30 12,-21 20,20 28,14 28,-20 0,-25 3,-29 12,-20 19,19 25,15 32,-20 6,-30 7,-31 20,-12 14,18 15,18 20,2 17,-52 19,-54 23,-35 7,26 20,20 33,-15 10,-25 14,-28 17,-15 6,25 18,21 33,-10 11,-23 14,-25 17,-10 6,25 20,21 37,-10 11,-20 15,-23 16,-10 0,24 18,21 41,-5 16,-20 18,-20 19,-5 0,23 17,22 30,-3 12,-23 32,-27 24,-5 -4,9 0,15 10,15 9,0 16,-4 16,-10 0,-5 9,-14 19,-19 16,-9 18,-8 14,9 -6,24 9,26 27,5 16,-19 31,-19 24,0 -8,19 10,19 41,-1 23,-15 23,-14 18,7 -5,18 -3,21 10,16 10,-4 24,-10 32,-13 11,-5 14,-2 8,11 -7,19 5,19 49,0 13,-5 15,-2 11,14 -6,24 -4,25 32,11 24,-9 26,-8 20,11 -6,19 -4,20 32,15 21,-3 32,-3 26,0 -7,3 -13,12 -13,19 0,10 10,12 38,9 30,-4 34,-3 19,6 -26,17 -11,30 26,23 26,-5 30,-3 20,8 -21,21 -15,29 19,29 25,0 29,3 20,12 -20,20 -14,28 20,28 25,0 29,3 20,12 -19,19 -15,26 19,33 28,6 29,8 12,20 -17,13 -17,14 0,19 51,17 53,19 35,23 -27,7 -21,21 15,37 19,9 25,15 15,15 -25,1 -22,18 4,32 14,8 18,14 10,17 -13,4 -17,32 -4,32 5,0 17,7 28,16 16,13 16,15 2,10 -30,-9 -30,13 -1,40 15,14 22,23 16,19 -27,-13 -34,7 -12,28 21,19 21,22 6,25 -22,4 -22,11 6,40 l 22,24 -22,-6 c -27,-9 -28,-3 -7,29 15,23 15,25 -1,25 -17,0 -17,1 2,48 4,8 0,10 -12,5 -19,-7 -19,4 0,50 6,13 4,16 -10,11 -15,-6 -16,-3 -10,24 6,28 4,31 -11,25 -15,-5 -16,-1 -10,33 4,25 3,34 -3,25 -13,-20 -29,-5 -23,24 3,20 1,24 -12,19 -13,-5 -16,1 -17,32 0,22 -3,33 -6,27 -9,-24 -23,-13 -23,19 0,25 -3,29 -12,20 -20,-20 -28,-14 -28,20 0,25 -3,29 -12,20 -19,-19 -28,-14 -28,14 0,20 -4,24 -19,19 -14,-4 -20,1 -26,22 -4,15 -10,22 -12,16 -9,-24 -31,-13 -38,20 -5,22 -9,26 -12,15 -7,-27 -30,-21 -37,8 -7,25 -8,25 -21,8 -13,-18 -14,-17 -26,9 -12,26 -31,38 -26,16 5,-25 -20,-18 -33,8 -11,22 -14,25 -17,11 -6,-23 -12,-23 -41,5 -14,12 -22,16 -18,10 16,-29 -7,-34 -35,-8 -25,25 -27,26 -22,6 5,-21 -11,-30 -22,-11 -3,5 -14,14 -25,20 -15,8 -17,7 -13,-10 z m 191,-63 c 102,-30 180,-76 256,-152 124,-124 182,-272 174,-450 C 1592,849 1564,761 1495,660 1286,352 839,310 575,575 400,749 351,1023 453,1251 c 54,122 175,242 296,296 130,58 284,69 419,30 z"
         id="path1087"
         style="fill:#fc2145;fill-opacity:1" />
      <path
         d="M 915,1574 C 682,1525 523,1388 449,1172 362,918 497,601 742,485 c 237,-113 483,-72 665,110 181,181 222,431 109,661 -56,112 -147,204 -257,260 -104,52 -251,77 -344,58 z m 257,-63 c 218,-76 368,-284 368,-511 0,-231 -154,-440 -380,-516 -83,-28 -244,-26 -333,4 -148,52 -287,191 -339,339 -32,96 -32,250 0,345 61,176 222,318 407,358 63,14 213,4 277,-19 z"
         id="path1089"
         style="fill:#fc2145;fill-opacity:1" />
      <path
         d="m 1059,1390 c 28,-22 51,-44 51,-48 0,-4 16,-18 35,-31 20,-13 34,-26 31,-28 -2,-2 -37,18 -77,45 -41,27 -94,59 -119,72 l -45,22 54,-48 c 44,-39 81,-93 81,-119 0,-3 -15,-5 -32,-5 -18,-1 -46,-6 -62,-13 -28,-12 -27,-13 24,-15 70,-3 78,-10 44,-38 l -29,-24 35,7 35,6 -26,-29 c -15,-16 -34,-41 -43,-56 -10,-15 -27,-29 -39,-31 -18,-3 -17,-5 6,-6 15,0 35,-5 45,-11 9,-5 34,-16 54,-24 47,-19 73,-59 73,-113 0,-39 2,-43 26,-43 14,0 34,6 45,14 15,12 17,17 7,27 -7,7 -13,32 -13,54 0,33 -9,54 -41,99 -28,39 -38,61 -31,68 18,18 46,4 77,-39 16,-23 51,-53 77,-68 34,-18 50,-35 55,-55 7,-27 10,-28 32,-17 27,14 56,51 66,86 5,16 4,21 -4,16 -7,-4 -45,15 -86,42 -55,35 -75,54 -75,70 0,14 -20,39 -55,69 -30,26 -52,51 -49,55 7,13 -62,84 -115,118 -67,43 -72,39 -12,-9 z m 202,-221 c 10,-19 9,-20 -10,-9 -12,6 -21,18 -21,26 0,19 16,10 31,-17 z"
         id="path1091"
         style="fill:#fc2145;fill-opacity:1" />
      <path
         d="m 847,1350 c 6,-24 -4,-25 -31,-5 -25,19 -42,19 -27,1 16,-19 -3,-30 -28,-16 -27,14 -30,13 -24,-11 5,-19 3,-21 -26,-14 -20,4 -31,3 -31,-4 0,-6 5,-11 10,-11 6,0 10,-4 10,-10 0,-5 -10,-10 -22,-10 -13,0 -30,-5 -38,-10 -13,-8 -12,-10 3,-10 28,0 20,-17 -15,-30 -25,-10 -28,-14 -15,-17 25,-6 21,-18 -10,-33 -23,-11 -25,-14 -10,-17 23,-6 22,-20 -3,-33 -23,-12 -27,-32 -5,-24 9,4 15,0 15,-9 0,-8 -7,-20 -15,-27 -8,-7 -15,-16 -15,-21 0,-5 7,-6 15,-3 17,7 21,-21 5,-31 -16,-10 -12,-25 6,-25 9,0 14,-6 11,-12 -7,-21 -17,-64 -11,-50 3,6 12,12 20,12 11,0 14,-9 9,-37 -3,-21 -2,-32 1,-25 3,6 12,12 19,12 10,0 12,-10 9,-37 -4,-31 -3,-35 6,-20 16,24 30,12 30,-26 1,-27 2,-29 11,-14 14,24 29,12 29,-26 0,-29 1,-30 14,-11 16,21 13,23 32,-33 4,-15 6,-15 15,-3 8,13 10,13 19,0 5,-8 10,-22 10,-30 1,-11 4,-10 16,5 15,19 16,17 12,-32 -4,-36 -13,-63 -31,-87 l -27,-34 48,-17 c 64,-23 194,-30 265,-16 57,12 197,76 197,90 0,4 -62,29 -137,56 -203,71 -296,118 -365,186 -71,69 -101,132 -101,210 0,107 75,189 173,189 22,0 40,-5 40,-10 0,-6 13,-1 29,11 16,12 49,24 74,26 45,5 45,6 34,32 -6,14 -17,33 -25,41 -8,8 -12,10 -8,3 13,-23 -15,-24 -34,-1 -16,19 -19,20 -20,6 0,-24 -17,-23 -30,2 -11,21 -32,28 -27,9 1,-6 -4,-14 -10,-16 -7,-3 -13,0 -13,6 0,6 -9,15 -19,20 -16,9 -18,8 -14,-9 z"
         id="path1093"
         style="fill:#fc2145;fill-opacity:1" />
      <path
         d="m 801,1201 c -11,-7 -9,-15 10,-41 19,-25 25,-28 27,-15 5,21 -6,65 -16,65 -4,0 -13,-4 -21,-9 z"
         id="path1095"
         style="fill:#fc2145;fill-opacity:1" />
      <path
         d="m 848,1175 c 5,-39 26,-47 36,-12 10,38 7,47 -17,47 -20,0 -23,-4 -19,-35 z"
         id="path1097"
         style="fill:#fc2145;fill-opacity:1" />
      <path
         d="m 900,1184 c 0,-12 -3,-29 -6,-38 -4,-12 0,-16 15,-16 12,0 38,-7 58,-15 35,-15 38,-14 57,4 24,24 16,37 -13,21 -30,-16 -26,-1 12,38 l 32,33 -77,-2 c -74,-2 -78,-3 -78,-25 z"
         id="path1099"
         style="fill:#fc2145;fill-opacity:1" />
      <path
         d="m 761,1167 c -8,-10 -4,-20 18,-41 24,-23 29,-25 35,-11 5,15 -21,64 -35,65 -4,0 -12,-6 -18,-13 z"
         id="path1101"
         style="fill:#fc2145;fill-opacity:1" />
      <path
         d="m 725,1119 c -8,-24 -10,-22 38,-36 44,-13 47,-6 9,30 -34,32 -39,33 -47,6 z"
         id="path1103"
         style="fill:#fc2145;fill-opacity:1" />
      <path
         d="m 710,1055 c 0,-14 1,-25 3,-25 1,0 22,6 46,14 l 45,13 -34,11 c -49,18 -60,15 -60,-13 z"
         id="path1105"
         style="fill:#fc2145;fill-opacity:1" />
      <path
         d="m 721,1021 c -8,-5 -11,-17 -7,-28 6,-20 7,-20 50,1 24,12 41,24 39,29 -6,10 -65,9 -82,-2 z"
         id="path1107"
         style="fill:#fc2145;fill-opacity:1" />
      <path
         d="m 763,985 c -37,-16 -39,-22 -20,-56 27,-51 27,-51 63,-19 19,16 40,30 46,30 7,0 -7,-14 -30,-31 -48,-35 -49,-39 -23,-63 18,-17 21,-16 59,25 l 39,42 -33,30 -34,29 -36,-21 c -40,-24 -48,-26 -38,-10 3,6 22,17 41,25 18,8 31,19 28,24 -8,13 -24,12 -62,-5 z"
         id="path1109"
         style="fill:#fc2145;fill-opacity:1" />
      <path
         d="m 863,864 -34,-37 21,-21 c 18,-16 23,-18 27,-7 3,8 21,31 39,51 28,31 31,39 18,44 -27,10 -36,7 -71,-30 z"
         id="path1111"
         style="fill:#fc2145;fill-opacity:1" />
      <path
         d="m 919,833 c -40,-43 -41,-47 -24,-59 28,-20 33,-18 55,25 11,22 24,42 30,46 14,9 12,22 -4,28 -9,4 -31,-12 -57,-40 z"
         id="path1113"
         style="fill:#fc2145;fill-opacity:1" />
      <path
         d="m 970,808 c -16,-22 -30,-45 -30,-50 0,-12 112,-60 120,-51 3,5 23,29 44,55 l 37,48 -26,10 c -39,15 -41,14 -71,-27 -16,-21 -32,-42 -37,-48 -13,-14 12,35 34,66 17,24 17,28 3,33 -31,12 -44,5 -74,-36 z"
         id="path1115"
         style="fill:#fc2145;fill-opacity:1" />
      <path
         d="m 1111,754 c -23,-26 -41,-50 -41,-54 0,-7 33,-19 51,-20 4,0 18,18 33,40 14,21 36,45 48,51 15,8 9,-3 -20,-36 -23,-26 -42,-51 -42,-55 0,-8 104,-50 123,-50 7,0 27,16 46,35 18,19 42,37 52,40 27,9 24,21 -8,33 -73,28 -176,62 -188,62 -7,0 -32,-21 -54,-46 z m 149,-49 c -24,-25 -46,-45 -47,-45 -10,0 21,41 48,64 48,41 48,31 -1,-19 z"
         id="path1117"
         style="fill:#fc2145;fill-opacity:1" />
      <path
         d="m 1344,682 c -60,-44 -69,-58 -45,-71 16,-9 25,-6 50,15 17,14 40,39 52,55 20,28 20,29 1,29 -10,0 -37,-13 -58,-28 z"
         id="path1119"
         style="fill:#fc2145;fill-opacity:1" />
    </g>
    <path
       id="text14773"
       style="font-style:normal;font-variant:normal;font-weight:bold;font-stretch:normal;font-size:5.64444px;line-height:1.25;font-family:Sans;-inkscape-font-specification:'Sans, Bold';font-variant-ligatures:none;font-variant-caps:normal;font-variant-numeric:normal;font-variant-east-asian:normal;fill:#fc2145;fill-opacity:1;stroke-width:2.68548"
       inkscape:transform-center-x="-49.299031"
       inkscape:transform-center-y="14.464085"
       d="m 386.80886,504.18583 v 10.02856 c 0,1.22225 0.071,2.4247 0.2254,3.60868 0.1532,1.14572 0.2892,2.02196 0.4039,2.63298 h -0.2882 c -0.8404,-1.29858 -1.9842,-2.3841 -3.4355,-3.26247 -1.4514,-0.87898 -3.3065,-1.32172 -5.5598,-1.32172 -3.5902,0 -6.4917,1.37795 -8.7069,4.12785 -2.2152,2.75 -3.3201,6.79533 -3.3201,12.14237 0,5.30899 1.0855,9.3399 3.2625,12.0899 2.2153,2.71174 5.0633,4.0702 8.5389,4.0702 2.2534,0 4.0837,-0.44355 5.4969,-1.32172 1.4132,-0.91653 2.5427,-2.02165 3.383,-3.32012 h 0.3411 l 1.6627,4.06492 h 6.5301 v -43.53943 z m -39.6475,5.61744 -2.4599,6.58786 -4.6997,2.86378 v 3.60858 h 4.065 v 15.06919 c 0,2.67357 0.4242,4.77155 1.264,6.2993 0.879,1.48949 2.0419,2.54122 3.4932,3.15234 1.4896,0.61103 3.169,0.91755 5.0405,0.91755 1.6041,0 3.0744,-0.15631 4.4112,-0.46182 1.375,-0.26694 2.5241,-0.58869 3.4408,-0.97032 v -6.36224 c -0.878,0.26694 -1.7599,0.49633 -2.6383,0.68715 -0.8779,0.19082 -1.7936,0.28825 -2.7485,0.28825 -1.1075,0 -2.0084,-0.28724 -2.6959,-0.85969 -0.6871,-0.61102 -1.028,-1.50674 -1.028,-2.69073 v -15.06918 h 8.7645 v -6.41471 h -8.7645 v -6.64552 z m -170.43905,6.06332 v 0.005 c -2.10062,0 -3.95043,0.57449 -5.55451,1.7204 -1.60419,1.14582 -2.8651,2.52377 -3.78174,4.12785 h -0.40396 l -1.25879,-5.27133 h -6.47246 v 31.27648 h 8.5338 v -15.92411 c 0,-1.98612 0.40396,-3.55387 1.20631,-4.69959 0.84041,-1.14581 1.92563,-1.96339 3.26247,-2.45992 1.33673,-0.53489 2.73417,-0.80285 4.18559,-0.80285 0.38164,0 0.82011,0.0406 1.31654,0.11571 0.5349,0.0406 0.93379,0.0913 1.20114,0.16747 l 0.62929,-8.0197 c -0.34408,-0.0812 -0.80083,-0.13601 -1.37429,-0.17357 -0.57245,-0.0406 -1.06939,-0.0609 -1.4896,-0.0609 z m 91.77845,0 v 0.005 c -2.10062,0 -3.95033,0.57449 -5.55451,1.7204 -1.60409,1.14582 -2.865,2.52377 -3.78174,4.12785 h -0.39889 l -1.26406,-5.27133 h -6.47246 v 31.27648 h 8.53379 v -15.92411 c 0,-1.98612 0.40397,-3.55387 1.20631,-4.69959 0.84041,-1.14581 1.92574,-1.96339 3.26247,-2.45992 1.33674,-0.53489 2.73427,-0.80285 4.1856,-0.80285 0.38163,0 0.82011,0.0406 1.31654,0.11571 0.53489,0.0406 0.93378,0.0913 1.20113,0.16747 l 0.63437,-8.0197 c -0.34408,-0.0812 -0.80692,-0.13601 -1.37937,-0.17357 -0.57245,-0.0406 -1.06959,-0.0609 -1.48969,-0.0609 z m -71.03935,0.005 c -4.73603,0 -8.46031,1.39744 -11.17205,4.1856 -2.71174,2.78817 -4.06492,6.78021 -4.06492,11.9745 0,3.47561 0.64756,6.43551 1.94593,8.8799 1.29858,2.40623 3.07561,4.23655 5.32898,5.49686 2.29164,1.26041 4.89152,1.89346 7.79418,1.89346 4.69786,0 8.40266,-1.41692 11.11439,-4.24325 2.7499,-2.82633 4.12257,-6.83268 4.12257,-12.02697 0,-3.47562 -0.64756,-6.40182 -1.94593,-8.76978 -1.29857,-2.40613 -3.07561,-4.23645 -5.32898,-5.49686 -2.25347,-1.26031 -4.85325,-1.89346 -7.79417,-1.89346 z m 127.70205,0 c -3.743,0 -6.742,0.73079 -8.9953,2.18192 -2.2534,1.45143 -3.3779,3.62735 -3.3779,6.53011 0,1.75684 0.3015,3.22715 0.9125,4.41113 0.611,1.14582 1.5511,2.13888 2.8113,2.97918 1.2604,0.80184 2.8619,1.61982 4.8098,2.46003 2.0242,0.8404 3.514,1.53171 4.4688,2.06651 0.9551,0.53489 1.5684,1.01194 1.8358,1.43194 0.3055,0.4202 0.4567,0.89724 0.4567,1.43194 0,0.80184 -0.3654,1.4494 -1.091,1.94583 -0.6871,0.49633 -1.8704,0.745 -3.5509,0.745 -1.4896,0 -3.2081,-0.24867 -5.1559,-0.745 -1.9479,-0.49633 -3.7586,-1.1243 -5.4391,-1.88818 v 7.0441 c 1.5659,0.64959 3.1283,1.10694 4.6943,1.37429 1.5659,0.30551 3.4405,0.46182 5.6175,0.46182 4.4303,0 7.7504,-0.84244 9.9656,-2.52285 2.2534,-1.71867 3.3831,-4.16255 3.3831,-7.33266 0,-1.87143 -0.3654,-3.38071 -1.091,-4.52653 -0.6872,-1.18388 -1.6806,-2.15756 -2.9792,-2.92143 -1.2986,-0.80184 -2.8467,-1.56643 -4.6419,-2.29215 -1.8333,-0.76428 -3.2255,-1.37215 -4.1804,-1.83052 -0.9165,-0.45878 -1.5444,-0.88202 -1.8881,-1.26407 -0.3055,-0.4202 -0.4619,-0.87796 -0.4619,-1.37418 0,-1.37501 1.2611,-2.06134 3.7818,-2.06134 1.4131,0 2.8054,0.22837 4.1803,0.68715 1.375,0.4202 2.831,0.95611 4.3587,1.60509 l 2.5753,-6.13152 c -1.8715,-0.87898 -3.6875,-1.50634 -5.4444,-1.88828 -1.7568,-0.38164 -3.6067,-0.57651 -5.5545,-0.57651 z m 92.0092,0 c -2.9409,0 -5.5213,0.61407 -7.7365,1.83581 -2.2152,1.22214 -3.9531,3.05754 -5.2136,5.50203 -1.2222,2.40613 -1.8305,5.4389 -1.8305,9.10544 0,3.59031 0.6861,6.5697 2.0612,8.93766 1.3751,2.36806 3.2638,4.14489 5.6701,5.32898 2.4061,1.14581 5.1763,1.7204 8.3081,1.7204 2.4063,0 4.451,-0.19488 6.1316,-0.57652 1.7186,-0.34408 3.3397,-0.89318 4.8674,-1.65747 v -6.58786 c -1.7569,0.84041 -3.4559,1.46817 -5.0983,1.88828 -1.6423,0.38163 -3.4778,0.57143 -5.502,0.57143 -2.4062,0 -4.2949,-0.68613 -5.67,-2.06133 -1.3367,-1.3749 -2.0426,-3.26369 -2.119,-5.66991 h 20.1674 v -4.12795 c 0,-4.54511 -1.2609,-8.04051 -3.7818,-10.4849 -2.5207,-2.48256 -5.9382,-3.72398 -10.2541,-3.72398 z m -203.21023,0.57652 12.43084,31.05094 -0.51359,1.54725 c -0.49632,1.52765 -1.2804,2.82237 -2.34979,3.89186 -1.03123,1.10755 -2.44297,1.66275 -4.23807,1.66275 -0.64959,0 -1.28234,-0.0406 -1.89346,-0.11571 -0.57245,-0.0812 -1.06949,-0.1492 -1.48959,-0.22533 v 6.76092 c 0.5349,0.1147 1.14825,0.20706 1.8358,0.28318 0.72572,0.1147 1.56805,0.17255 2.52285,0.17255 2.97909,0 5.59318,-0.82315 7.84665,-2.46509 2.29164,-1.60429 4.0296,-4.02858 5.21358,-7.27502 l 13.23338,-35.28891 h -9.16837 l -5.78541,17.58675 c -0.26694,0.84041 -0.51562,1.71645 -0.745,2.63308 -0.19082,0.87898 -0.34104,1.81824 -0.45675,2.81131 h -0.17356 c -0.0812,-0.99266 -0.18777,-1.93284 -0.34103,-2.81131 -0.15327,-0.91653 -0.38671,-1.79287 -0.69222,-2.63308 l -5.90072,-17.58675 z m 62.90424,0 v 20.39288 c 0,4.01031 1.01296,6.93124 3.03694,8.76451 2.02425,1.7952 4.71645,2.696 8.07745,2.696 1.9479,0 3.7834,-0.36539 5.502,-1.09091 1.757,-0.72571 3.1297,-1.88909 4.1227,-3.49327 h 0.4618 l 1.1435,4.00726 h 6.5301 v -31.27647 h -8.5337 v 14.72297 c 0,3.32286 -0.477,5.87849 -1.4319,7.6736 -0.9551,1.75683 -2.7318,2.63825 -5.329,2.63825 -1.7569,0 -3.0372,-0.57448 -3.8395,-1.7204 -0.8018,-1.14582 -1.201,-2.82532 -1.201,-5.04052 v -18.2739 z m 155.65839,0 11.9169,31.27647 h 8.7645 l 11.9168,-31.27647 h -8.9377 l -6.0161,17.81756 c -0.7257,2.21531 -1.1442,4.35226 -1.2588,6.41471 h -0.2304 c -0.041,-0.91653 -0.1695,-1.94887 -0.3989,-3.09459 -0.1908,-1.14582 -0.4587,-2.25063 -0.8028,-3.32012 l -6.016,-17.81756 z m -15.2947,5.49685 c 2.0243,0 3.514,0.63335 4.4689,1.89346 0.9551,1.22214 1.4514,2.78471 1.4896,4.69441 h -11.9746 c 0.1908,-2.25337 0.8191,-3.91338 1.8882,-4.98287 1.1076,-1.06939 2.4856,-1.605 4.1279,-1.605 z M 197.346,522.74782 c 2.29164,0 3.93733,0.78357 4.9304,2.34979 1.03122,1.52776 1.54724,3.8403 1.54724,6.93398 0,3.09367 -0.51561,5.43991 -1.54724,7.0441 -0.99266,1.56592 -2.61938,2.34979 -4.87265,2.34979 -2.29173,0 -3.95164,-0.78357 -4.98286,-2.34979 -0.99266,-1.60419 -1.4896,-3.95043 -1.4896,-7.0441 0,-3.09368 0.49633,-5.40622 1.4896,-6.93398 1.03122,-1.56592 2.67164,-2.34979 4.92511,-2.34979 z m 183.44676,0.0609 c 2.5208,0 4.2393,0.80285 5.1559,2.40754 0.9551,1.60409 1.432,3.93084 1.432,6.98635 v 0.91755 c -0.041,2.78816 -0.5349,4.89142 -1.4896,6.30458 -0.9551,1.375 -2.6149,2.06133 -4.9829,2.06133 -1.9478,0 -3.457,-0.76428 -4.5265,-2.29214 -1.0694,-1.56602 -1.605,-3.87846 -1.605,-6.93397 0,-3.05541 0.5359,-5.38227 1.605,-6.98645 1.0695,-1.64225 2.5397,-2.4652 4.4111,-2.4652 z" />
  </g>
</svg>
