<?xml version="1.0" standalone="no"?>
<!DOCTYPE svg PUBLIC "-//W3C//DTD SVG 20010904//EN"
 "http://www.w3.org/TR/2001/REC-SVG-20010904/DTD/svg10.dtd">
<svg version="1.0" xmlns="http://www.w3.org/2000/svg" width="96" height="96" viewBox="0 0 640.000000 576.000000" preserveAspectRatio="xMidYMid meet" >

<g transform="translate(0.000000,576.000000) scale(0.100000,-0.100000)"
fill="#ccc" stroke="none" >
<path d="M1585 5681 c-44 -27 -79 -53 -78 -57 1 -5 245 -427 543 -938 l542
-930 -29 -20 c-34 -24 -192 -180 -219 -217 l-19 -27 -350 204 c-192 112 -354
203 -360 203 -10 1 -105 -161 -105 -176 1 -5 154 -96 342 -203 187 -107 347
-200 355 -205 12 -9 10 -20 -11 -76 -14 -37 -33 -108 -42 -158 l-18 -91 -1068
0 -1068 0 0 -110 0 -110 1068 0 1068 0 18 -91 c9 -50 28 -121 42 -158 21 -56
23 -67 11 -76 -8 -5 -168 -98 -355 -205 -188 -107 -341 -198 -342 -203 0 -15
95 -177 105 -176 6 0 168 91 360 203 l350 204 19 -27 c11 -14 61 -67 111 -118
l92 -92 -494 -848 c-272 -466 -518 -889 -547 -939 l-54 -91 91 -53 c84 -49 91
-51 103 -35 7 9 250 425 540 924 290 498 532 912 539 919 9 10 22 8 68 -13 61
-27 177 -59 251 -70 l46 -7 2 -402 3 -401 105 0 105 0 3 400 2 400 103 21 c56
12 131 34 167 49 36 15 74 29 86 32 18 4 83 -103 558 -919 296 -507 541 -927
546 -932 12 -12 192 93 183 108 -4 6 -251 428 -548 939 l-541 927 86 88 c48
48 95 99 106 113 l19 27 350 -204 c193 -111 355 -203 360 -203 10 -1 105 161
105 176 0 5 -160 100 -356 212 -280 161 -354 207 -349 220 24 61 54 167 65
229 l13 72 1069 0 1068 0 0 110 0 110 -1068 0 -1069 0 -13 73 c-11 61 -41 167
-65 228 -5 13 69 59 349 220 196 112 356 207 356 212 0 15 -95 177 -105 176
-5 0 -167 -92 -360 -203 l-350 -204 -19 27 c-24 33 -180 188 -222 221 l-31 25
542 930 c299 511 541 933 539 937 -6 9 -161 98 -172 98 -6 0 -251 -415 -547
-922 -295 -508 -540 -927 -545 -931 -4 -5 -43 2 -86 16 -44 14 -112 30 -151
37 l-73 13 -2 401 -3 401 -105 0 -105 0 -3 -401 -2 -401 -73 -13 c-39 -7 -109
-25 -154 -40 -59 -20 -85 -24 -91 -16 -5 6 -251 426 -546 934 -296 507 -543
922 -549 922 -7 -1 -48 -23 -92 -49z m1819 -1985 c165 -45 263 -103 386 -226
124 -124 181 -222 227 -391 24 -89 24 -309 0 -398 -46 -169 -103 -267 -227
-391 -162 -162 -322 -234 -546 -247 -246 -14 -461 71 -639 251 -120 122 -177
220 -222 387 -24 89 -24 309 0 398 42 154 99 258 201 368 131 141 282 225 471
262 71 14 278 6 349 -13z"/>
<path d="M3135 3026 c-101 -44 -125 -178 -46 -257 112 -113 296 -12 267 146
-18 94 -131 151 -221 111z"/>
<path d="M3135 5266 c-101 -44 -125 -178 -46 -257 112 -113 296 -12 267 146
-18 94 -131 151 -221 111z"/>
<path d="M1215 4146 c-101 -44 -125 -178 -46 -257 112 -113 296 -12 267 146
-18 94 -131 151 -221 111z"/>
<path d="M5055 4146 c-101 -44 -125 -178 -46 -257 112 -113 296 -12 267 146
-18 94 -131 151 -221 111z"/>
<path d="M1215 1906 c-101 -44 -125 -178 -46 -257 65 -65 157 -65 222 0 124
124 -15 327 -176 257z"/>
<path d="M5055 1906 c-101 -44 -125 -178 -46 -257 65 -65 157 -65 222 0 124
124 -15 327 -176 257z"/>
<path d="M3135 786 c-101 -44 -125 -178 -46 -257 65 -65 157 -65 222 0 124
124 -15 327 -176 257z"/>
</g>
</svg>
